<?xml version="1.0" encoding="UTF-8" standalone="no"?>
<svg
   width="100%"
   height="100%"
   viewBox="0 0 11 11"
   version="1.1"
   xml:space="preserve"
   style="fill-rule:evenodd;clip-rule:evenodd;stroke-linejoin:round;stroke-miterlimit:2;"
   id="svg1"
   xmlns="http://www.w3.org/2000/svg"
   xmlns:svg="http://www.w3.org/2000/svg"><defs
     id="defs1" /><path
     id="path2"
     style="opacity:0.5;fill:#ff2929;stroke-width:2.12658;stroke-linecap:round;stroke-linejoin:round;stroke-miterlimit:1.5;paint-order:markers stroke fill"
     d="M 4.1523438 0 A 4.1527543 4.1527543 0 0 0 0 4.1523438 A 4.1527543 4.1527543 0 0 0 4.1523438 8.3046875 A 4.1527543 4.1527543 0 0 0 6.2871094 7.7070312 L 9.5800781 11 L 11 9.5800781 L 7.7070312 6.2871094 A 4.1527543 4.1527543 0 0 0 8.3046875 4.1523438 A 4.1527543 4.1527543 0 0 0 4.1523438 0 z M 4.1523438 2.0078125 A 2.1447544 2.1447544 0 0 1 6.296875 4.1523438 A 2.1447544 2.1447544 0 0 1 4.1523438 6.296875 A 2.1447544 2.1447544 0 0 1 2.0078125 4.1523438 A 2.1447544 2.1447544 0 0 1 4.1523438 2.0078125 z " /></svg>
